{"title":"Hawthorne Heights - This Is Who We Are (DVDRip H.264 AC3)","uid":7275865,"size":910821582,"categoryP":"video","categoryS":"movies","magnet":"?xt=urn:btih:a4897bfa08e10ba8ee5c64b4ee21e3cccda4284f&amp;dn=Hawthorne+Heights+-+This+Is+Who+We+Are+%28DVDRip+H.264+AC3%29&amp;tr=udp%3A%2F%2Ftracker.openbittorrent.com%3A80&amp;tr=udp%3A%2F%2Fopen.demonii.com%3A1337&amp;tr=udp%3A%2F%2Ftracker.coppersurfer.tk%3A6969&amp;tr=udp%3A%2F%2Fexodus.desync.com%3A6969","seeders":0,"leechers":0,"uploader":"HH_Fan","files":-1,"time":1337277603,"description":"General\nFormat                                   : AVI\nFormat/Info                              : Audio Video Interleave\nFile size                                : 869 MiB\nDuration                                 : 1h 7mn\nOverall bit rate mode                    : Variable\nOverall bit rate                         : 1 807 Kbps\nMovie name                               : Hawthorne Heights - This Is Who We Are (DVDRip - H.264, AC3)\nEncoded by                               : HH_2012 (HH_Fan)\nGenre                                    : Post-Hardcore\nLaw rating                               : Unrated\nRecorded date                            : 2012\nOriginal source form/Name                : Movie\nCopyright                                : (c) 2006 Another Victory\n\nVideo\nID                                       : 0\nFormat                                   : AVC\nFormat/Info                              : Advanced Video Codec\nFormat profile                           : &lt;a class=&quot;__cf_email__&quot; href=&quot;/cdn-cgi/l/email-protection&quot; data-cfemail=&quot;5f123e36311f136c716e&quot;&gt;[email&amp;#160;protected]&lt;/a&gt;&lt;script cf-hash='f9e31' type=&quot;text/javascript&quot;&gt;\n/* &lt;![CDATA[ */!function(){try{var t=&quot;currentScript&quot;in document?document.currentScript:function(){for(var t=document.getElementsByTagName(&quot;script&quot;),e=t.length;e--;)if(t[e].getAttribute(&quot;cf-hash&quot;))return t[e]}();if(t&amp;&amp;t.previousSibling){var e,r,n,i,c=t.previousSibling,a=c.getAttribute(&quot;data-cfemail&quot;);if(a){for(e=&quot;&quot;,r=parseInt(a.substr(0,2),16),n=2;a.length-n;n+=2)i=parseInt(a.substr(n,2),16)^r,e+=String.fromCharCode(i);e=document.createTextNode(e),c.parentNode.replaceChild(e,c)}}}catch(u){}}();/* ]]&gt; */&lt;/script&gt;\nFormat settings, CABAC                   : Yes\nFormat settings, ReFrames                : 2 frames\nCodec ID                                 : H264\nDuration                                 : 1h 7mn\nBit rate mode                            : Variable\nBit rate                                 : 1 603 Kbps\nMaximum bit rate                         : 2 400 Kbps\nWidth                                    : 720 pixels\nHeight                                   : 540 pixels\nDisplay aspect ratio                     : 4:3\nFrame rate                               : 30.000 fps\nColor space                              : YUV\nChroma subsampling                       : 4:2:0\nBit depth                                : 8 bits\nScan type                                : Progressive\nBits/(Pixel*Frame)                       : 0.137\nStream size                              : 771 MiB (89%)\n\nAudio\nID                                       : 1\nFormat                                   : AC-3\nFormat/Info                              : Audio Coding 3\nMode extension                           : CM (complete main)\nFormat settings, Endianness              : Big\nCodec ID                                 : 2000\nDuration                                 : 1h 7mn\nBit rate mode                            : Constant\nBit rate                                 : 192 Kbps\nChannel(s)                               : 2 channels\nChannel positions                        : Front: L R\nSampling rate                            : 48.0 KHz\nBit depth                                : 16 bits\nCompression mode                         : Lossy\nStream size                              : 92.3 MiB (11%)\nAlignment                                : Aligned on interleaves\nInterleave, duration                     : 32 ms (0.96 video frame)\nLanguage                                 : English\n","torrent":{"xt":"urn:btih:a4897bfa08e10ba8ee5c64b4ee21e3cccda4284f","amp;dn":"Hawthorne+Heights+-+This+Is+Who+We+Are+%28DVDRip+H.264+AC3%29","amp;tr":["udp%3A%2F%2Ftracker.openbittorrent.com%3A80","udp%3A%2F%2Fopen.demonii.com%3A1337","udp%3A%2F%2Ftracker.coppersurfer.tk%3A6969","udp%3A%2F%2Fexodus.desync.com%3A6969"],"infoHash":"a4897bfa08e10ba8ee5c64b4ee21e3cccda4284f","infoHashBuffer":{"type":"Buffer","data":[164,137,123,250,8,225,11,168,238,92,100,180,238,33,227,204,205,164,40,79]},"announce":[],"urlList":[]}}